# xmcd
#
# Track frame offsets:
#	150
#	20789
#	34481
#	51016
#	72683
#	89477
#	103377
#	121626
#	138206
#	157680
#	179855
#	197152
#	220459
#	238361
#	270140
#	287047
#	307719
#	320214
#
# Disc length: 4474 seconds
#
# Revision: 10
# Processed by: cddbd v1.5.1PL0 Copyright (c) Steve Scherf et al.
# Submitted via: MusicManager 7.0.3.0 
#
DISCID=16117812
DTITLE=Buffett, Jimmy - Meet Me In Margaritaville [CD2]
DYEAR=2003
DGENRE=Island
TTITLE0=School Boy Heart
TTITLE1=Everybody's Talkin' (NEW!)
TTITLE2=Volcano
TTITLE3=Son of a Son of Sailor (New Recording)
TTITLE4=Take Another Road
TTITLE5=Knees Of My Heart (New Recording)
TTITLE6=In The Shelter (New Recording)
TTITLE7=Havana Daydreamin'
TTITLE8=Desperation Samba (Halloween in Tijuana) (Live - New Recording)
TTITLE9=Barefoot Children
TTITLE10=Saxophones (New Recording)
TTITLE11=Cowboy In The Jungle
TTITLE12=He Went To Paris (New Recording)
TTITLE13=Creola
TTITLE14=Bob Robert's Society Band
TTITLE15=A Pirate Looks At Forty (Live - New Recording)
TTITLE16=Sail On Sailor (NEW!)
TTITLE17=The Captain And The Kid (New Recording)
EXTD=YEAR: 2003
EXTT0=
EXTT1=
EXTT2=
EXTT3=
EXTT4=
EXTT5=
EXTT6=
EXTT7=
EXTT8=
EXTT9=
EXTT10=
EXTT11=
EXTT12=
EXTT13=
EXTT14=
EXTT15=
EXTT16=
EXTT17=
PLAYORDER=
